<svg xmlns="http://www.w3.org/2000/svg" xmlns:xlink="http://www.w3.org/1999/xlink" viewBox="0 0 130 135"><defs><style>.cls-1{isolation:isolate;}.cls-2{fill:url(#linear-gradient);}.cls-3{fill:url(#linear-gradient-2);}.cls-4{fill:url(#linear-gradient-3);}.cls-5{fill:url(#linear-gradient-4);}.cls-6{fill:url(#linear-gradient-5);}.cls-7{opacity:0.45;fill:url(#linear-gradient-6);}.cls-7,.cls-8{mix-blend-mode:multiply;}.cls-8{opacity:0.47;fill:url(#linear-gradient-7);}</style><linearGradient id="linear-gradient" x1="71.76" y1="93.27" x2="26.64" y2="75.51" gradientUnits="userSpaceOnUse"><stop offset="0" stop-color="#726a95"/><stop offset="0.28" stop-color="#7f819f"/><stop offset="0.86" stop-color="#a1bdb7"/><stop offset="1" stop-color="#aacdbe"/></linearGradient><linearGradient id="linear-gradient-2" x1="91.49" y1="49.62" x2="68.45" y2="77.7" xlink:href="#linear-gradient"/><linearGradient id="linear-gradient-3" x1="50.37" y1="53.71" x2="40.65" y2="34.99" xlink:href="#linear-gradient"/><linearGradient id="linear-gradient-4" x1="60.71" y1="39.11" x2="83.39" y2="37.67" xlink:href="#linear-gradient"/><linearGradient id="linear-gradient-5" x1="45.14" y1="56.44" x2="93.56" y2="79.84" gradientUnits="userSpaceOnUse"><stop offset="0" stop-color="#aacdbe"/><stop offset="0.17" stop-color="#a7c7bc"/><stop offset="0.39" stop-color="#9db7b5"/><stop offset="0.65" stop-color="#8e9caa"/><stop offset="0.92" stop-color="#79769a"/><stop offset="1" stop-color="#726a95"/></linearGradient><linearGradient id="linear-gradient-6" x1="45.05" y1="63.12" x2="106.61" y2="83.28" xlink:href="#linear-gradient-5"/><linearGradient id="linear-gradient-7" x1="53.79" y1="47.12" x2="81.87" y2="50.36" xlink:href="#linear-gradient-5"/></defs><title>logo</title><g class="cls-1"><g id="Layer_1" data-name="Layer 1"><path class="cls-2" d="M102.12,68a2,2,0,0,1,0,.25l0,.75c0,.25,0,.5,0,.75s0,.49-.07.74,0,.24,0,.35a.41.41,0,0,1,0,.11l-.06.5-.12.86c0,.28-.08.56-.14.84s0,.29-.07.43-.07.36-.11.54l-.15.71c-.08.39-.18.77-.27,1.14s-.21.78-.32,1.17l0,.11-.12.38c-.07.23-.13.45-.21.67,0,0,0,.05,0,.07a2.83,2.83,0,0,1-.11.31,1.73,1.73,0,0,1-.11.32c-.16.46-.32.92-.5,1.37a.08.08,0,0,1,0,0l-.24.59c-.12.3-.24.59-.38.88h0c-.13.28-.26.57-.4.86l-.42.85c-.13.25-.26.51-.4.76a.59.59,0,0,1,0,.08c-.1.19-.21.38-.32.56h0c-.2.36-.41.71-.62,1.06l-.36.58-.39.6-.39.58-.38.53A35,35,0,0,1,93,91.18l-.44.5-.44.49-.06,0c-.31.34-.64.68-1,1s-.51.49-.77.73-.51.48-.78.71l-.64.55-.24.2-.74.6-.56.43c-.19.14-.37.28-.57.41s-.33.25-.51.37-.66.46-1,.67-.62.41-1,.61l-1,.57-.36.19c-.29.17-.58.32-.87.48l-.67.33-.94.46-.15.06-1,.43-1.32.53-.66.24h0c-.3.11-.59.2-.9.3l-.42.14-.91.27h0A37.21,37.21,0,0,1,65,103.92l-1.19,0h0c-.74,0-1.49-.08-2.23-.14h0l-.8,0-.85,0-.66,0h-.12l-.81,0h-.06l-.84-.07q-.88-.08-1.77-.18c-.24,0-.47-.06-.71-.09l-.64-.08-.78-.12L52.8,103l-.53-.09-.64-.12c-.27,0-.53-.1-.8-.15l-.52-.11-.73-.16-.5-.12H49l-.36-.09-.13,0h-.08l-.55-.14-.56-.15-.09,0-1.42-.4-.09,0-.07,0h0l-1.08-.34-.39-.13q-.57-.18-1.14-.39l-.32-.12-1.18-.44-.33-.13-.29-.12-.28-.11L40,99.26l-.13-.06-1.33-.58-1.45-.68A58,58,0,0,1,9.84,69.88v20.8a13.74,13.74,0,0,0,6.86,11.89l36.73,21.2a56.7,56.7,0,0,0,11.64-3.1,57.67,57.67,0,0,0,37.07-53.15C102.13,67.69,102.13,67.86,102.12,68Z"/><path class="cls-3" d="M65.07,12.85l-.71.28-.69.28-.61.25-.2.09-.15.06-.26.12-.63.28-.11,0,0,0-.3.13-.45.22-.74.35-.22.11-.59.3-1,.51-.33.19-.34.18-.62.35,0,0c-.21.12-.42.24-.62.37s-.47.27-.71.42l-.54.33-.11.07-.18.11-.35.23-.53.35-.15.09-.18.12-.5.34-.15.1-.25.17-.58.42-.19.12-.09.07s0,0,0,0l-.44.33-.17.12-.9.69a3.92,3.92,0,0,0-.32.25l-.37.29-.28.22a.27.27,0,0,1-.08.07l-.16.13q-.26.2-.51.42c-.47.4-.95.81-1.41,1.22h0l-.26.23,0,0-.27.25-.06.05-.41.38L46,24.9l-.19.19,0,0-.51.5-.06.05-.62.62-.42.43-.31.33c-.45.48-.9,1-1.33,1.45-.22.24-.43.49-.65.74l-.63.75-.69.85,0,.06s0,0,0,0l-.14.17-.13.17-.48.64c-.27.34-.53.69-.78,1s-.37.51-.55.77l-.48.7,0,.07-.2.3c-.21.3-.41.61-.6.91-.08.12-.15.24-.22.36s-.3.47-.44.71-.38.62-.57.94l-.52.92c-.12.2-.23.41-.34.62s-.3.54-.44.82a.43.43,0,0,0,0,.07l-.1.2c0,.06-.06.11-.08.16a1.4,1.4,0,0,0-.09.17l-.39.78c-.21.44-.42.88-.62,1.32-.06.14-.13.28-.19.43a2.14,2.14,0,0,0-.1.22l-.08.19s0,0,0,0l-.27.6c-.08.2-.16.4-.25.6l-.19.49c-.12.29-.24.58-.35.87s-.23.62-.35.94l-.18.53c-.09.24-.17.48-.25.72,0,0,0,.08,0,.13-.07.22-.15.44-.21.66s-.18.55-.26.83c0,.12-.08.25-.11.38l-.12.38c0,.07,0,.14,0,.21-.07.23-.13.46-.2.69a.75.75,0,0,1,0,.16l-.08.3c-.12.44-.23.9-.34,1.35l0,.21-.12.5c-.05.25-.11.49-.16.73s-.13.68-.2,1-.1.58-.16.87l-.09.57a2.17,2.17,0,0,0,0,.25c0,.11,0,.22,0,.33s-.06.37-.08.55-.06.43-.1.65-.07.61-.11.92-.07.64-.1,1a37.15,37.15,0,0,1,73.85,4.79c0,.32,0,.63,0,1s0,.84,0,1.25c0-.16,0-.33,0-.5a57.67,57.67,0,0,1-37.07,53.15,56.7,56.7,0,0,1-11.64,3.1l4.7,2.71a13.72,13.72,0,0,0,13.72,0l4.73-2.73,36.7-21.18a13.74,13.74,0,0,0,6.86-11.89V46.05a57.18,57.18,0,0,0-.33-6.18A13.78,13.78,0,0,0,113.28,31L76.57,9.77A56.48,56.48,0,0,0,65.07,12.85Z"/><path class="cls-4" d="M58.13,7.05l-4.69,2.7L16.7,31A13.73,13.73,0,0,0,9.84,42.85v27A58,58,0,0,0,37.12,97.94l1.45.68,1.33.58.13.06.59.24.28.11.29.12.33.13,1.18.44.32.12q.57.21,1.14.39l.39.13,1.08.34h0l.07,0,.09,0,1.42.4.09,0,.56.15.55.14h.08l.13,0,.36.09h.07l.5.12.73.16.52.11c.27.05.53.11.8.15l.64.12.53.09.67.11.78.12.64.08c.24,0,.47.07.71.09q.88.11,1.77.18l.84.07h.06l.81,0h.12l.66,0,.85,0,.8,0c-.8-.08-1.58-.17-2.36-.3l-.55-.09-.34-.06-.8-.16c-.42-.08-.83-.17-1.24-.28-.22,0-.43-.1-.63-.15l-.44-.12-.58-.16c-.49-.14-1-.3-1.47-.47s-1.19-.41-1.77-.65l-.46-.18c-.24-.1-.49-.2-.72-.31s-.72-.31-1.08-.49a2.92,2.92,0,0,1-.36-.17l-.79-.4c-.25-.12-.49-.25-.73-.38-.64-.36-1.28-.73-1.9-1.12-.44-.27-.88-.55-1.3-.85l-.75-.53c-.17-.12-.35-.24-.52-.38L42.1,96l-.5-.4-.38-.31L41,95.1l-.12-.1-.52-.46c-.19-.17-.39-.34-.57-.52s-.38-.35-.57-.53-.37-.36-.55-.55l-.54-.55c-.19-.19-.36-.38-.53-.58a6.29,6.29,0,0,1-.43-.47c-.07-.08-.14-.15-.2-.23-.24-.27-.48-.56-.72-.84l-.07-.1-.64-.81,0,0c-.1-.13-.21-.27-.31-.42-.26-.33-.5-.68-.74-1l-.66-1-.4-.64c-.56-.91-1.08-1.85-1.57-2.81-.2-.4-.39-.79-.58-1.2-.29-.64-.57-1.3-.83-2L30.25,80q-.53-1.37-.93-2.79c-.08-.24-.15-.49-.21-.74s-.12-.45-.17-.67-.06-.2-.08-.3c-.11-.47-.22-.94-.31-1.43,0-.14-.06-.28-.08-.42s-.09-.47-.13-.71,0-.19-.05-.28v-.08s0,0,0,0a37.37,37.37,0,0,1-.43-4.65v0c0-.36,0-.73,0-1.08s0-.73,0-1.09v-.05A38.37,38.37,0,0,1,28.27,61s0,0,0,0c0-.33.06-.65.1-1s.07-.61.11-.92.06-.44.1-.65.05-.37.08-.55,0-.22,0-.33a2.17,2.17,0,0,1,0-.25l.09-.57c.06-.29.11-.58.16-.87s.13-.67.2-1,.11-.48.16-.73l.12-.5,0-.21c.11-.45.22-.91.34-1.35l.08-.3a.75.75,0,0,0,0-.16c.07-.23.13-.46.2-.69,0-.07,0-.14,0-.21l.12-.38c0-.13.07-.26.11-.38.08-.28.17-.55.26-.83s.14-.44.21-.66c0,0,0-.09,0-.13.08-.24.16-.48.25-.72l.18-.53c.12-.32.23-.63.35-.94s.23-.58.35-.87l.19-.49c.09-.2.17-.4.25-.6l.27-.6s0,0,0,0l.08-.19a2.14,2.14,0,0,1,.1-.22c.06-.15.13-.29.19-.43.2-.44.41-.88.62-1.32l.39-.78a1.4,1.4,0,0,1,.09-.17l.06-.13.12-.23a.43.43,0,0,1,0-.07c.14-.28.29-.55.44-.82s.22-.42.34-.62l.52-.92c.19-.32.37-.63.57-.94s.29-.48.44-.71.14-.24.22-.36c.19-.3.39-.61.6-.91l.2-.3,0-.07.48-.7c.18-.26.36-.52.55-.77s.51-.7.78-1l.48-.64.13-.17a1,1,0,0,0,.13-.16l0,0,0-.06.69-.85.63-.75c.21-.25.43-.5.65-.74.43-.49.88-1,1.33-1.45l.31-.33.42-.43.62-.62.06-.05.51-.5,0,0L46,24.9l.27-.25.41-.38.06-.05L47,24l0,0,.26-.23h0c.46-.41.94-.82,1.41-1.22q.26-.23.51-.42l.16-.13a.27.27,0,0,0,.08-.07l.28-.22.37-.29a3.92,3.92,0,0,1,.32-.25l.9-.69.17-.12.44-.33s0,0,0,0l.09-.07.19-.12c.19-.15.38-.28.58-.42l.25-.17.15-.1.5-.34.18-.12.15-.09.53-.35.35-.23.18-.11.11-.07.54-.33c.24-.15.47-.29.71-.42s.41-.25.62-.37l0,0,.62-.35.34-.18.33-.19,1-.51.59-.3.22-.11.74-.35.45-.22.3-.13,0,0,.11,0,.63-.28.26-.12.15-.06.2-.09.61-.25.69-.28.71-.28a56.48,56.48,0,0,1,11.5-3.08L71.85,7.05A13.68,13.68,0,0,0,58.13,7.05Z"/><path class="cls-5" d="M27.88,65.52a2.18,2.18,0,0,1,0-.25l0-.75c0-.25,0-.49,0-.74S28,63.29,28,63s0-.24,0-.36a.34.34,0,0,1,0-.1l.06-.5.12-.86c0-.28.08-.57.14-.85s.05-.28.07-.42.07-.37.11-.55l.15-.71c.08-.38.18-.76.27-1.14s.21-.78.32-1.16l0-.12.12-.38c.07-.23.13-.44.21-.67,0,0,0,0,0-.06s.07-.21.11-.32a2,2,0,0,1,.11-.32c.16-.45.32-.91.5-1.36l0,0,.24-.6c.12-.29.24-.58.38-.87h0c.13-.29.26-.57.4-.86l.42-.85c.13-.26.26-.51.4-.76l0-.09.32-.56h0c.2-.36.41-.71.62-1.06l.36-.59.39-.59.39-.58c.13-.18.25-.36.38-.53A33.26,33.26,0,0,1,37,42.37c.14-.17.29-.34.44-.5s.29-.33.44-.49l.06-.05c.31-.35.64-.68,1-1l.77-.73c.25-.23.51-.47.78-.7l.64-.55.24-.2.74-.6c.18-.15.37-.29.56-.43l.57-.42.51-.36c.32-.24.66-.46,1-.68s.62-.4,1-.6l1-.57.36-.2.87-.47.67-.34.94-.45.15-.07,1-.42c.44-.19.88-.36,1.32-.53l.66-.24h0l.9-.31.42-.13c.3-.1.61-.18.91-.27h0A36.83,36.83,0,0,1,65,29.63c.4,0,.8,0,1.19,0h0c.74,0,1.49.07,2.23.14h0l.8,0,.85,0,.66,0h.12l.81.05h.06l.84.07q.89.08,1.77.18l.71.09.64.09.78.12.67.1.53.09.64.12.8.16.52.11.73.16.5.11.07,0,.36.09.13,0,.08,0,.55.14.56.15.09,0,1.42.41.09,0,.07,0,0,0c.36.1.72.22,1.08.33l.39.13,1.14.39a2.08,2.08,0,0,0,.32.12c.4.14.79.29,1.18.45l.33.13a1.78,1.78,0,0,1,.29.12l.28.11.59.24.13.06c.45.18.89.38,1.33.58l1.45.68a57.93,57.93,0,0,1,27.28,28.06V42.86A13.73,13.73,0,0,0,113.3,31L76.57,9.77A57.68,57.68,0,0,0,27.86,66C27.87,65.85,27.87,65.69,27.88,65.52Z"/><g id="C"><path class="cls-6" d="M76.32,46.59a3.32,3.32,0,0,0-1.72-2.8,8.65,8.65,0,0,0-6.47-.92,15,15,0,0,0-6.68,2.9A18.1,18.1,0,0,0,56.17,53a29,29,0,0,0-2.12,11.35A22.53,22.53,0,0,0,56.54,75a18.88,18.88,0,0,0,6.71,7.42A17,17,0,0,0,72.44,85a22.43,22.43,0,0,0,8.65-1.88,22.14,22.14,0,0,0,5.22-3,2.65,2.65,0,0,1,3.76.52l.39.52h0A34.39,34.39,0,0,1,78.81,92,28.28,28.28,0,0,1,65,95.73a23.84,23.84,0,0,1-12.45-3.56,26.7,26.7,0,0,1-9.48-9.69A26.34,26.34,0,0,1,39.54,69.1a29.84,29.84,0,0,1,8.33-20.82,29.12,29.12,0,0,1,9.57-6.61,30.45,30.45,0,0,1,12.24-2.4,28.29,28.29,0,0,1,9.84,1.63,16.76,16.76,0,0,1,7,4.52,9.38,9.38,0,0,1,2.55,6.33,6.42,6.42,0,0,1-2.21,5,7.63,7.63,0,0,1-5.23,2,6.41,6.41,0,0,1-6.4-6.09,22.08,22.08,0,0,1,.56-2.79A18.22,18.22,0,0,0,76.32,46.59Z"/><path class="cls-7" d="M59.9,43.13s0,0,0,0A29.11,29.11,0,0,0,50,49.17a26.17,26.17,0,0,0-6.24,9,26.69,26.69,0,0,0-2.15,10.43,24.65,24.65,0,0,0,12.51,21.8,23.09,23.09,0,0,0,11.41,3.17,26.13,26.13,0,0,0,15.82-5.49s0,0,0,0q-8,2.61-12.92,2.62a23.75,23.75,0,0,1-11.5-2.83A21.65,21.65,0,0,1,48.58,80,21.24,21.24,0,0,1,45.5,68.73a27.78,27.78,0,0,1,3.72-13.81A38.14,38.14,0,0,1,59.9,43.13Z"/><path class="cls-8" d="M77.24,52.61a3.29,3.29,0,0,0,1.51,3,5.93,5.93,0,0,0,3.29,1,23.24,23.24,0,0,0,3-.48s0,0,0,0q-3.77-.81-3.76-3.93a9.33,9.33,0,0,1,.28-1.41,9.06,9.06,0,0,0,.27-2c0-2.25-1.58-4-4.76-5.15,0,0,0,0,0,0a6.24,6.24,0,0,1,1.33,3.48,10.49,10.49,0,0,1-.55,2.83A10.1,10.1,0,0,0,77.24,52.61Z"/></g></g></g></svg>