<svg id="Layer_1" data-name="Layer 1" xmlns="http://www.w3.org/2000/svg" xmlns:xlink="http://www.w3.org/1999/xlink" viewBox="0 0 70 70"><defs><style>.cls-1{fill:url(#linear-gradient);}.cls-2{fill:url(#linear-gradient-2);}.cls-3{fill:url(#linear-gradient-3);}.cls-4{fill:url(#linear-gradient-4);}.cls-5{fill:url(#linear-gradient-5);}.cls-6{fill:url(#linear-gradient-6);}</style><linearGradient id="linear-gradient" x1="12.4" y1="6.8" x2="34.55" y2="10.95" gradientUnits="userSpaceOnUse"><stop offset="0" stop-color="#1f36ff"/><stop offset="0.24" stop-color="#2f6bff"/><stop offset="0.48" stop-color="#3d9cff"/><stop offset="0.7" stop-color="#47bfff"/><stop offset="0.88" stop-color="#4ed5ff"/><stop offset="0.99" stop-color="#50ddff"/></linearGradient><linearGradient id="linear-gradient-2" x1="34.34" y1="23.48" x2="19.71" y2="41.67" gradientUnits="userSpaceOnUse"><stop offset="0.01" stop-color="#50ddff"/><stop offset="0.14" stop-color="#4fd8ff"/><stop offset="0.3" stop-color="#4acaff"/><stop offset="0.46" stop-color="#44b3ff"/><stop offset="0.64" stop-color="#3a92ff"/><stop offset="0.82" stop-color="#2e68ff"/><stop offset="1" stop-color="#1f36ff"/></linearGradient><linearGradient id="linear-gradient-3" x1="47.91" y1="62.94" x2="31.92" y2="47.19" gradientUnits="userSpaceOnUse"><stop offset="0.3" stop-color="#50ddff"/><stop offset="0.37" stop-color="#4ac8ff"/><stop offset="0.59" stop-color="#388aff"/><stop offset="0.77" stop-color="#2a5cff"/><stop offset="0.92" stop-color="#2240ff"/><stop offset="1" stop-color="#1f36ff"/></linearGradient><linearGradient id="linear-gradient-4" x1="47.04" y1="61.81" x2="39.32" y2="54.25" gradientUnits="userSpaceOnUse"><stop offset="0.01" stop-color="#50ddff"/><stop offset="1" stop-color="#1f36ff"/></linearGradient><linearGradient id="linear-gradient-5" x1="32.89" y1="37.96" x2="9.19" y2="68.74" gradientUnits="userSpaceOnUse"><stop offset="0.01" stop-color="#50ddff"/><stop offset="0.15" stop-color="#4bcbff"/><stop offset="0.44" stop-color="#3d9dff"/><stop offset="0.85" stop-color="#2853ff"/><stop offset="1" stop-color="#1f36ff"/></linearGradient><linearGradient id="linear-gradient-6" x1="23.41" y1="50.7" x2="45.67" y2="77.38" gradientUnits="userSpaceOnUse"><stop offset="0.14" stop-color="#50ddff"/><stop offset="0.28" stop-color="#4ac9ff"/><stop offset="0.55" stop-color="#3b95ff"/><stop offset="0.95" stop-color="#2241ff"/><stop offset="1" stop-color="#1f36ff"/></linearGradient></defs><title>logo</title><circle class="cls-1" cx="28.69" cy="9.85" r="7.09"/><path class="cls-2" d="M36.1,30.23l-.34,9.65c-2.13-3.82-7.19-6.43-13.48-6.51h-.37V20.77h4.73A9.49,9.49,0,0,1,36.1,30.23Z"/><path class="cls-3" d="M51.54,53.4a16.53,16.53,0,0,0-7.41,3.7,15.91,15.91,0,0,0-5.53,9.8V53.4Z"/><path class="cls-4" d="M52.44,53.4v2.51A11.37,11.37,0,0,1,41.1,67.24H38.6V66.9a15.91,15.91,0,0,1,5.53-9.8,16.53,16.53,0,0,1,7.41-3.7Z"/><path class="cls-5" d="M35.76,39.88V53.06h-.39c-5.68,0-10.65,2.16-13.44,5.41,0-.15,0-.3,0-.45V33.4h.36C28.44,33.39,33.71,36.09,35.76,39.88Z"/><path class="cls-6" d="M35.76,53.06V67.24H31.14a9.25,9.25,0,0,1-9.21-8.78c2.79-3.25,7.76-5.41,13.44-5.41Z"/></svg>